<svg width="48" height="48" viewBox="0 0 48 48" fill="none" xmlns="http://www.w3.org/2000/svg">
  <!-- Background Circle -->
  <circle cx="24" cy="24" r="22" fill="#1E293B"></circle>
  
  <!-- Chat bubble -->
  <path d="M14 18C14 15.7909 15.7909 14 18 14H30C32.2091 14 34 15.7909 34 18V24C34 26.2091 32.2091 28 30 28H22L18 32V28H18C15.7909 28 14 26.2091 14 24V18Z" fill="#3B82F6"></path>

  <!-- Heart -->
  <path d="M24 21.5C23.6 21 22.95 20.6 22.25 20.6C20.95 20.6 20 21.65 20 22.85C20 24.1 20.9 25.1 22.2 26.2C22.75 26.65 23.35 27.1 24 27.6C24.65 27.1 25.25 26.65 25.8 26.2C27.1 25.1 28 24.1 28 22.85C28 21.65 27.05 20.6 25.75 20.6C25.05 20.6 24.4 21 24 21.5Z" fill="#F472B6"></path>
</svg>
